<?xml version="1.0" standalone="no"?>
<!DOCTYPE svg PUBLIC "-//W3C//DTD SVG 20010904//EN"
 "http://www.w3.org/TR/2001/REC-SVG-20010904/DTD/svg10.dtd">
<svg version="1.0" xmlns="http://www.w3.org/2000/svg"
 width="237.000000pt" height="237.000000pt" viewBox="0 0 237.000000 237.000000"
 preserveAspectRatio="xMidYMid meet">
<metadata>
Created by potrace 1.14, written by Peter Selinger 2001-2017
</metadata>
<g transform="translate(0.000000,237.000000) scale(0.100000,-0.100000)"
fill="#000000" stroke="none">
<path d="M883 2308 c-75 -88 -176 -158 -253 -173 -35 -7 -158 -8 -169 -1 -9 6
-160 -160 -223 -243 l-26 -35 47 -56 c103 -119 153 -239 153 -360 -1 -88 -17
-137 -77 -240 -95 -162 -137 -293 -138 -434 -1 -90 4 -131 23 -180 5 -15 7
-26 4 -26 -14 0 65 -121 110 -168 51 -53 164 -132 189 -132 7 0 17 -4 22 -9 6
-5 44 -21 85 -35 41 -14 113 -39 160 -56 47 -17 137 -48 200 -70 63 -21 129
-46 147 -56 28 -17 36 -17 65 -5 18 8 121 44 228 80 107 37 205 73 218 79 12
7 22 10 22 7 0 -4 54 14 105 35 164 70 223 112 301 215 30 39 60 100 53 108
-2 2 2 11 10 20 7 9 11 23 8 31 -3 8 1 20 8 26 11 9 12 17 4 31 -6 12 -6 19 0
19 12 0 7 190 -6 199 -4 3 -9 20 -10 36 0 17 -7 44 -14 60 -6 17 -14 38 -16
49 -2 10 -26 62 -54 115 -103 195 -102 192 -107 274 -8 132 46 273 149 385 27
30 49 57 49 60 0 7 -24 35 -163 196 -75 86 -69 83 -123 76 -63 -7 -156 10
-219 40 -29 13 -81 55 -123 97 l-73 73 -269 0 -270 0 -27 -32z m508 -57 c4
-46 5 -638 2 -647 -3 -9 -71 -12 -232 -13 l-227 -1 0 328 c1 180 4 332 8 338
5 7 79 11 228 11 192 -1 220 -3 221 -16z"/>
</g>
</svg>
